<?xml version="1.0" encoding="UTF-8"?>
<svg width="24px" height="24px" viewBox="0 0 24 24" version="1.1" xmlns="http://www.w3.org/2000/svg">
    <title>Alarm Clock</title>
    <g stroke="none" stroke-width="1" fill="none" fill-rule="evenodd">
        <path d="M12,4 C16.418278,4 20,7.581722 20,12 C20,16.418278 16.418278,20 12,20 C7.581722,20 4,16.418278 4,12 C4,7.581722 7.581722,4 12,4 Z M12,6 C8.6862915,6 6,8.6862915 6,12 C6,15.3137085 8.6862915,18 12,18 C15.3137085,18 18,15.3137085 18,12 C18,8.6862915 15.3137085,6 12,6 Z" fill="#4A6FA5" fill-rule="nonzero"></path>
        <path d="M12,8 C12.5522847,8 13,8.44771525 13,9 L13,12 L16,12 C16.5522847,12 17,12.4477153 17,13 C17,13.5522847 16.5522847,14 16,14 L12,14 C11.4477153,14 11,13.5522847 11,13 L11,9 C11,8.44771525 11.4477153,8 12,8 Z" fill="#4A6FA5"></path>
        <path d="M8.29289322,2.29289322 C8.68341751,1.90236893 9.31658249,1.90236893 9.70710678,2.29289322 L11.7071068,4.29289322 C12.0976311,4.68341751 12.0976311,5.31658249 11.7071068,5.70710678 C11.3165825,6.09763107 10.6834175,6.09763107 10.2928932,5.70710678 L8.29289322,3.70710678 C7.90236893,3.31658249 7.90236893,2.68341751 8.29289322,2.29289322 Z" fill="#4A6FA5"></path>
        <path d="M14.2928932,2.29289322 C14.6834175,2.68341751 14.6834175,3.31658249 14.2928932,3.70710678 L12.2928932,5.70710678 C11.9023689,6.09763107 11.2692039,6.09763107 10.8786797,5.70710678 C10.4881554,5.31658249 10.4881554,4.68341751 10.8786797,4.29289322 L12.8786797,2.29289322 C13.269204,1.90236893 13.902369,1.90236893 14.2928932,2.29289322 Z" fill="#4A6FA5"></path>
    </g>
</svg>
